# xmcd
#
# Track frame offsets: 
#        150
#        13689
#        29993
#        46660
#        61613
#        79341
#        96959
#        113508
#        131035
#        147137
#        167634
#        184841
#        202114
#        218411
#        234456
#
# Disc length: 3361 seconds
#
# Revision: 3
# Processed by: cddbd v1.5.2PL0 Copyright (c) Steve Scherf et al.
# Submitted via: ExactAudioCopyFreeDBPlugin 1.0
#
DISCID=cb0d1f0f
DTITLE=Jessie J - Sweet Talker (Deluxe Edition)
DYEAR=2014
DGENRE=Pop
TTITLE0=Ain't Been Done
TTITLE1=Burnin' Up (feat. 2 Chainz)
TTITLE2=Sweet Talker
TTITLE3=Bang Bang (feat. Ariana Grande and Nicki Minaj)
TTITLE4=Fire
TTITLE5=Personal
TTITLE6=Masterpiece
TTITLE7=Seal Me With A Kiss (feat. De La Soul)
TTITLE8=Said Too Much
TTITLE9=Loud (feat. Lindsey Stirling)
TTITLE10=Keep Us Together
TTITLE11=Get Away
TTITLE12=Your Loss I'm Found
TTITLE13=Strip
TTITLE14=You Don't Really Know Me
EXTD=YEAR: 2014
EXTT0=
EXTT1=
EXTT2=
EXTT3=
EXTT4=
EXTT5=
EXTT6=
EXTT7=
EXTT8=
EXTT9=
EXTT10=
EXTT11=
EXTT12=
EXTT13=
EXTT14=
PLAYORDER=
